<?xml version="1.0" encoding="UTF-8"?>
<svg id="Layer_2" data-name="Layer 2" xmlns="http://www.w3.org/2000/svg" viewBox="0 0 3093.69 682.19">
  <defs>
    <style>
      .cls-1, .cls-2 {
        fill: #fff;
        stroke: #000;
      }

      .cls-1, .cls-2, .cls-3, .cls-4 {
        stroke-width: 10px;
      }

      .cls-2, .cls-3 {
        stroke-miterlimit: 10;
      }

      .cls-3, .cls-4 {
        stroke: #fff;
      }
    </style>
  </defs>
  <g id="Layer_1-2" data-name="Layer 1">
    <g>
      <path class="cls-4" d="M497.39,5v1.83c1.83,6.47,3.6,14.49,5.3,24.05,1.7,9.56,3.16,21.49,4.39,35.82,1.23,14.33,2.15,31.28,2.78,50.85,.63,19.6,.92,42.48,.92,68.68V511.69L34.6,5H5v1.83c1.86,6.47,3.63,14.49,5.3,24.05,1.7,9.56,3.16,21.49,4.42,35.82,1.23,14.33,2.15,31.28,2.78,50.85,.6,19.6,.92,42.48,.92,68.68V487.19c0,26.2-.32,49.08-.92,68.65-.63,19.57-1.55,36.45-2.78,50.62-1.26,14.17-2.71,26.07-4.42,35.6-1.67,9.56-3.44,17.58-5.3,24.05v1.83H87.28v-1.83c-1.83-6.47-3.53-14.49-5.08-24.05-1.55-9.53-2.94-21.43-4.17-35.6-1.23-14.17-2.15-31.06-2.75-50.62-.63-19.57-.95-42.45-.95-68.65V170.95l476.2,506.24h16.19V186.23c0-26.2,.28-49.08,.92-68.68,.63-19.57,1.55-36.52,2.78-50.85,1.23-14.33,2.62-26.26,4.17-35.82,1.55-9.56,3.22-17.58,5.08-24.05v-1.83h-82.28Z"/>
      <path class="cls-4" d="M1044.31,170.95c0,6.47-2.24,15.43-6.72,26.83-4.45,11.39-11.01,22.98-19.63,34.69l-120.22,161.78-117.44-155.31c-12.31-16.66-20.48-30.77-24.49-42.32-4.01-11.55-6-20.1-6-25.66h-131.33v1.86c5.27,2.46,12.97,8.24,23.13,17.33,10.16,9.09,20.8,21.05,31.91,35.82l166.42,219.6v31.91c0,27.74-.32,51.95-.92,72.59-.63,20.64-1.48,38.44-2.56,53.4-1.07,14.96-2.46,27.49-4.17,37.68-1.67,10.16-3.63,18.5-5.78,24.97v1.83h107.28v-1.83c-2.18-6.47-4.1-14.8-5.78-24.97-1.7-10.19-3.09-22.72-4.17-37.68-1.1-14.96-1.93-32.76-2.56-53.4-.6-20.64-.92-44.85-.92-72.59v-38.82l156.26-211.74c10.79-14.8,20.26-26.2,28.44-34.21,8.17-8.02,16.1-14.64,23.8-19.88v-1.86h-84.58Z"/>
      <path class="cls-4" d="M1289.8,238.93c-11.71-16.03-19.5-29.98-23.36-41.85-3.85-11.87-5.78-20.58-5.78-26.13h-131.77v1.86c3.72,1.83,9.56,6.69,17.58,14.55,8.02,7.86,16.32,17.2,24.97,27.99l150.71,202.5-153.48,194.17c-10.48,13.57-20.33,24.74-29.57,33.52-9.25,8.77-16.51,15.65-21.75,20.58v1.83h78.59c0-3.38,1.01-7.45,3.03-12.25,1.99-4.77,4.67-9.94,8.08-15.5,3.38-5.52,7.16-11.24,11.33-17.11,4.17-5.84,8.4-11.39,12.72-16.63l119.27-150.71,24.49-100.33-85.06-116.49Z"/>
      <line class="cls-3" x1="1374.85" y1="355.43" x2="1350.36" y2="455.76"/>
    </g>
    <g>
      <path class="cls-1" d="M1597.36,648.69c-9.56-9.37-19.73-21.49-30.52-36.3l-162.73-220.52,135.46-172.45c10.79-13.86,19.57-24.18,26.35-30.96,6.79-6.79,12.47-11.87,17.11-15.28v-1.83h-77.67c0,3.38-1.01,7.48-3,12.25-2.02,4.77-4.54,9.94-7.64,15.5-3.09,5.52-6.63,11.24-10.64,17.11-4.01,5.84-8.02,11.39-12.02,16.63l-97.56,122.96-24.49,100.33,107.28,144.27c11.71,15.72,19.63,29.51,23.8,41.38,4.17,11.87,6.25,20.7,6.25,26.57h130.82v-1.86c-4.32-2.46-11.24-8.4-20.8-17.8Z"/>
      <path class="cls-1" d="M2153.09,654.25c-4.64-6.94-10.04-15.72-16.19-26.35-6.19-10.64-12.88-22.72-20.1-36.3-7.26-13.54-14.42-27.74-21.53-42.51l-184.92-389.28h-34.69l-188.61,389.28c-6.79,14.17-13.63,27.9-20.58,41.12-6.94,13.26-13.41,25.12-19.41,35.6-6.03,10.48-11.33,19.35-15.97,26.57-4.61,7.26-7.99,11.96-10.16,14.11v1.86h81.37v-1.86c-.6-.92-1.07-2.21-1.39-3.91-.32-1.7-.44-4.23-.44-7.64,0-5.24,.76-10.86,2.3-16.89,1.55-6,4.01-13.16,7.39-21.49,3.41-8.3,7.7-17.96,12.94-28.88,5.24-10.95,11.58-23.83,18.97-38.6l17.11-36.07c6.47,0,15.56-.06,27.27-.22,11.71-.16,24.65-.32,38.85-.47,14.17-.16,29.13-.22,44.85-.22h117.88l18.02,36.99c2.78,6.15,6.41,13.86,10.86,23.1,4.48,9.25,8.81,18.87,12.97,28.88,4.13,10.04,7.7,19.82,10.64,29.38,2.9,9.53,4.39,17.71,4.39,24.49v6.69c0,2.02-.32,4.26-.95,6.72h118.35v-1.86c-1.55-1.23-4.61-5.3-9.22-12.25Zm-219.16-178.92c-13.86,.16-28.18,.22-42.99,.22s-29.51,.09-44.15,.25c-14.64,.16-28.44,.22-41.38,.22h-28.22l98.47-205.27,95.73,204.36c-11.11,0-23.58,.06-37.46,.22Z"/>
      <path class="cls-1" d="M2604.76,171.36v1.83c2.15,6.47,3.85,14.8,5.08,24.96,1.23,10.19,2.24,22.76,3,37.68,.79,14.96,1.33,32.67,1.64,53.18,.28,20.48,.44,44.6,.44,72.34v173.37l-368-363.37h-28.66v1.83c2.15,6.47,4.01,14.8,5.55,24.96,1.51,10.19,2.78,22.76,3.69,37.68,.92,14.96,1.55,32.67,1.86,53.18,.28,20.48,.44,44.6,.44,72.34v116.52c0,27.74-.16,51.92-.44,72.56-.32,20.67-.95,38.47-1.86,53.4-.92,14.96-2.18,27.52-3.69,37.68-1.55,10.16-3.41,18.49-5.55,24.96v1.86h69.34v-1.86c-2.15-6.47-3.91-14.8-5.3-24.96-1.39-10.16-2.49-22.72-3.25-37.68-.76-14.93-1.29-32.73-1.61-53.4-.32-20.64-.47-44.82-.47-72.56v-164.59l367.56,361.53h18.02V361.36c0-27.74,.16-51.86,.47-72.34,.28-20.51,.92-38.22,1.83-53.18,.95-14.93,2.08-27.49,3.47-37.68,1.39-10.16,3.16-18.49,5.33-24.96v-1.83h-68.9Z"/>
      <path class="cls-1" d="M3030.56,622.12c-17.86,2.78-38.82,5.3-62.87,7.64-24.05,2.3-50.4,3.47-79.06,3.47v-209.91c16.35,0,33.45,.54,51.32,1.61,17.86,1.1,34.21,2.4,49.01,3.95,17.26,1.55,34.37,3.41,51.32,5.55l11.08-55.01c-12.62,2.15-27.27,3.85-43.9,5.08-14.17,1.55-31.28,2.78-51.32,3.69-20.04,.92-42.54,1.55-67.51,1.83V207.4c8.93-.6,17.74-1.23,26.35-1.83,7.42-.63,15.09-1.17,23.13-1.64,7.99-.44,15.09-.66,21.24-.66,17.26,0,32.45,.66,45.54,2.05,13.1,1.39,24.27,2.87,33.52,4.42,10.48,1.83,19.88,3.85,28.22,6l18.02-49.93c-6.15,1.23-19.03,2.15-38.6,2.78-19.57,.63-42.92,1.14-70.03,1.61-27.14,.47-56.56,.79-88.31,.92-31.75,.16-62.74,.25-92.92,.25v1.83c2.15,6.47,4.07,14.8,5.78,24.96,1.67,10.19,3.06,22.76,4.13,37.68,1.1,14.96,1.93,32.67,2.56,53.18,.6,20.48,.92,44.6,.92,72.34v116.52c0,27.74-.32,51.92-.92,72.56-.63,20.67-1.45,38.47-2.56,53.4-1.07,14.96-2.46,27.52-4.13,37.68-1.7,10.16-3.63,18.49-5.78,24.96v1.86h175.2c3.69,0,10.48,.06,20.36,.22,9.85,.16,20.42,.32,31.66,.47,11.27,.16,22.03,.44,32.38,.92,10.32,.47,17.8,.85,22.41,1.17l10.64-60.57c-16.95,4.32-35.92,8.17-56.87,11.55Z"/>
      <line class="cls-2" x1="1374.5" y1="355.81" x2="1350.01" y2="456.14"/>
    </g>
  </g>
</svg>